PathFileType	4	(X/Y/Z)	/Users/itak/Documents/Research/Walk-IL/dataset/trc/00576_00009.trc
DataRate	CameraRate	NumFrames	NumMarkers	Units	OrigDataRate	OrigDataStartFrame	OrigNumFrames
100.000000	100.000000	4	53	mm	100.000000	263	527
Frame#	Time	RPSI			LPSI			L3			STRN			T10			C7			CLAV			RBAK			LBAK			LSHO			LUPA			LAEL			LAOL			LWTS			LWPS			LFRA			LIFD			LHPS			LHTS			RSHO			RUPA			RAEL			RAOL			RWTS			RWPS			RFRA			RIFD			RHTS			RHPS			RBHD			LFHD			RFHD			LBHD			LHIP			RHIP			RASI			LASI			LKNE			LTHI			LANK			LTIP			LTOE			LMT1			LMT5			LHEE			RKNE			RTHI			RANK			RTIP			RTOE			RMT1			RMT5			RHEE			
		X1	Y1	Z1	X2	Y2	Z2	X3	Y3	Z3	X4	Y4	Z4	X5	Y5	Z5	X6	Y6	Z6	X7	Y7	Z7	X8	Y8	Z8	X9	Y9	Z9	X10	Y10	Z10	X11	Y11	Z11	X12	Y12	Z12	X13	Y13	Z13	X14	Y14	Z14	X15	Y15	Z15	X16	Y16	Z16	X17	Y17	Z17	X18	Y18	Z18	X19	Y19	Z19	X20	Y20	Z20	X21	Y21	Z21	X22	Y22	Z22	X23	Y23	Z23	X24	Y24	Z24	X25	Y25	Z25	X26	Y26	Z26	X27	Y27	Z27	X28	Y28	Z28	X29	Y29	Z29	X30	Y30	Z30	X31	Y31	Z31	X32	Y32	Z32	X33	Y33	Z33	X34	Y34	Z34	X35	Y35	Z35	X36	Y36	Z36	X37	Y37	Z37	X38	Y38	Z38	X39	Y39	Z39	X40	Y40	Z40	X41	Y41	Z41	X42	Y42	Z42	X43	Y43	Z43	X44	Y44	Z44	X45	Y45	Z45	X46	Y46	Z46	X47	Y47	Z47	X48	Y48	Z48	X49	Y49	Z49	X50	Y50	Z50	X51	Y51	Z51	X52	Y52	Z52	X53	Y53	Z53	

264	2.63	-16.48943138122559	1007.873107910156	247.3384704589844	-71.20964050292969	1005.753601074219	126.3315353393555	-34.48566436767578	1107.944702148438	182.6324920654297	185.7339477539062	1281.397216796875	67.36367034912109	-30.74965286254883	1232.798706054688	182.3457183837891	35.4816780090332	1502.263061523438	172.9213256835938	174.7799530029297	1393.387329101562	75.91441345214844	10.78397941589355	1379.246826171875	280.5463256835938	-43.47576522827148	1455.014038085938	110.9882888793945	-0.9724202752113342	1475.12548828125	-10.54829120635986	-58.47597122192383	1349.889404296875	-68.82177734375	-68.84306335449219	1130.757080078125	-98.04852294921875	-109.6682891845703	1123.025390625	-5.601144790649414	31.54468154907227	888.1027221679688	-115.5081100463867	-46.09660339355469	867.0964965820312	-149.0178680419922	-55.83567428588867	1044.865966796875	-117.9870071411133	21.58779716491699	719.6448364257812	-111.4015884399414	-36.37932968139648	806.6078491210938	-146.6437530517578	31.87535285949707	810.244873046875	-141.125244140625	160.5468292236328	1458.515747070312	277.1068725585938	176.7197113037109	1395.681640625	346.0057373046875	202.3314819335938	1111.094970703125	402.0523681640625	141.51318359375	1091.083862304688	403.675048828125	320.411865234375	897.27734375	314.3896789550781	308.6177062988281	877.2310180664062	393.3075256347656	218.4206390380859	1056.984619140625	406.0251770019531	330.6229248046875	733.6000366210938	308.5759582519531	361.5536499023438	809.810546875	318.0877685546875	330.9180908203125	804.7416381835938	385.1497802734375	161.3210754394531	1677.134643554688	188.7804107666016	201.0232391357422	1692.903686523438	-14.22552013397217	276.2544555664062	1688.917602539062	108.8719329833984	81.22459411621094	1679.4833984375	43.31200408935547	-3.622547388076782	929.213623046875	-45.13644027709961	143.1971282958984	935.4248046875	313.3965454101562	201.7567138671875	963.6275024414062	223.6872100830078	87.73477935791016	955.43408203125	-26.43359375	184.0393371582031	519.7505493164062	-79.19371795654297	102.9779586791992	672.480712890625	-85.88717651367188	171.2259368896484	39.46805953979492	-9.174850463867188	156.6386871337891	266.6195678710938	-35.64596557617188	360.5552368164062	81.11969757080078	-95.77158355712891	330.0958251953125	70.43817138671875	-24.63656616210938	254.4688262939453	51.53748321533203	-95.60707092285156	154.2718505859375	42.59654998779297	75.97561645507812	116.2765808105469	493.1441345214844	271.2444458007812	168.0048980712891	780.9028930664062	290.6597595214844	-37.02492141723633	41.21659851074219	301.1636657714844	91.28004455566406	350.307861328125	266.6375122070312	165.4542083740234	39.76782989501953	203.7857971191406	93.61182403564453	42.20460510253906	181.3412170410156	96.06317138671875	37.83009338378906	287.5504455566406	-104.4146041870117	37.18234252929688	263.2288818359375	
265	2.64	-9.667041778564453	1007.40234375	246.0909881591797	-65.33712768554688	1005.291076660156	125.6833343505859	-28.1372241973877	1107.437744140625	181.6551818847656	191.29345703125	1280.644409179688	64.43267059326172	-24.3249454498291	1232.30419921875	181.3314514160156	42.20139694213867	1501.714111328125	171.2450103759766	180.5087890625	1392.621459960938	73.06240844726562	18.31633567810059	1378.663696289062	279.166015625	-37.38135528564453	1454.547241210938	110.0730819702148	4.119753837585449	1474.5712890625	-11.88319778442383	-53.95534515380859	1349.33203125	-69.56221008300781	-64.39217376708984	1130.077026367188	-98.38361358642578	-104.7548751831055	1122.513916015625	-5.699607849121094	36.15221786499023	887.4152221679688	-115.8268585205078	-41.72194290161133	866.3309936523438	-148.9375305175781	-51.43301391601562	1044.165893554688	-118.2238235473633	26.20817375183105	718.96044921875	-111.1041717529297	-31.91403007507324	805.8472900390625	-146.4140777587891	36.36957550048828	809.4901123046875	-141.1497497558594	168.1810913085938	1457.702880859375	274.3661804199219	184.8828430175781	1394.764038085938	343.0089111328125	210.7185821533203	1110.065673828125	398.461181640625	149.9115905761719	1090.125244140625	400.6371154785156	327.6525268554688	896.1045532226562	309.5160217285156	316.6072692871094	876.0386962890625	388.4838256835938	226.7659149169922	1055.903686523438	402.2411804199219	337.5024108886719	732.4070434570312	303.4676513671875	368.5986633300781	808.5319213867188	312.8059387207031	338.6573791503906	803.499267578125	380.1310424804688	168.3360137939453	1676.323974609375	186.2131500244141	206.4256439208984	1692.175415039062	-17.0406436920166	282.6324157714844	1687.997924804688	105.4708709716797	87.03932952880859	1678.9091796875	41.35515213012695	0.9550424814224243	928.5841674804688	-46.37493133544922	150.0783386230469	934.7817993164062	311.1412963867188	208.3318176269531	962.7947387695312	220.8627166748047	92.31822967529297	954.8056640625	-28.33847618103027	188.7487182617188	519.4414672851562	-80.64218902587891	106.9959106445312	671.6640014648438	-87.56333160400391	189.5268402099609	38.40755844116211	-17.66987419128418	168.4208221435547	265.5158996582031	-40.51152038574219	377.4297790527344	85.17539215087891	-104.7403564453125	347.6226806640625	73.28972625732422	-33.58877182006836	272.1130065917969	53.0644645690918	-104.2669448852539	173.2495574951172	40.33840942382812	67.66645050048828	118.8494720458984	492.8162231445312	270.1904907226562	173.5811462402344	780.0999145507812	288.5079040527344	-36.86259841918945	41.52782821655273	301.2167663574219	92.86248779296875	350.2332458496094	266.0234985351562	165.4435424804688	39.74822616577148	203.7664489746094	93.66317749023438	42.41834259033203	181.4696197509766	96.09174346923828	37.78741073608398	287.5855102539062	-104.3320465087891	37.80224990844727	263.3799438476562	
266	2.65	-2.81850790977478	1006.910339355469	244.649658203125	-59.38848114013672	1004.776184082031	124.8108749389648	-21.72782325744629	1106.855346679688	180.5064697265625	196.8666381835938	1279.871948242188	61.4012336730957	-17.92234420776367	1231.758666992188	180.1194000244141	48.91134643554688	1501.125732421875	169.408203125	186.2209930419922	1391.830444335938	70.10150146484375	25.81217002868652	1378.040649414062	277.6260070800781	-31.2714900970459	1454.02001953125	108.9857864379883	9.213433265686035	1473.963500976562	-13.35408306121826	-49.4341926574707	1348.727172851562	-70.43173217773438	-59.97910690307617	1129.354858398438	-98.85079193115234	-99.87387847900391	1121.962524414062	-5.928627014160156	40.81509399414062	886.7489013671875	-116.3042678833008	-37.25795745849609	865.5364379882812	-149.0184783935547	-47.03731155395508	1043.426147460938	-118.5946807861328	31.03653526306152	718.2973022460938	-111.0168075561523	-27.36527252197266	805.067626953125	-146.3613128662109	40.95455932617188	808.754638671875	-141.347412109375	175.7639770507812	1456.84619140625	271.491943359375	192.9689025878906	1393.804321289062	339.8847045898438	218.9791717529297	1108.9970703125	394.77587890625	158.2035369873047	1089.149047851562	397.5052185058594	334.6854858398438	894.8540649414062	304.517333984375	324.3930053710938	874.7720336914062	383.5535583496094	234.9736938476562	1054.779418945312	398.3526916503906	344.0607299804688	731.1195678710938	298.28564453125	375.3614196777344	807.1494750976562	307.4306335449219	346.1482238769531	802.1746826171875	374.98974609375	175.283935546875	1675.48974609375	183.5176239013672	211.8038024902344	1691.429565429688	-19.94254493713379	288.9437255859375	1687.069702148438	101.9901428222656	92.81968688964844	1678.308837890625	39.26216125488281	5.717558860778809	927.8758544921875	-47.78013610839844	156.9324035644531	934.1370239257812	308.7936401367188	214.9224548339844	961.9428100585938	217.9821014404297	97.03343200683594	954.12060546875	-30.32991409301758	193.663818359375	519.0543823242188	-82.055419921875	111.2332763671875	670.7340698242188	-89.19992828369141	206.9497833251953	37.75388336181641	-26.1588249206543	179.8131561279297	264.6084289550781	-45.34153747558594	393.3018798828125	89.43789672851562	-113.8170013427734	364.220458984375	76.36930084228516	-42.60411834716797	288.7698059082031	54.92842864990234	-112.9479827880859	191.4208526611328	38.40634536743164	59.34622192382812	121.4179153442383	492.5198059082031	269.129638671875	179.1160888671875	779.3024291992188	286.3482666015625	-36.68644332885742	41.8674430847168	301.2730102539062	94.45275115966797	350.1901245117188	265.424072265625	165.4381866455078	39.72697448730469	203.7528533935547	93.64926147460938	42.61660766601562	181.5433807373047	96.11489868164062	37.74413681030273	287.6268005371094	-104.2598037719727	38.50618743896484	263.5663452148438	
267	2.66	4.051612854003906	1006.390869140625	243.0159301757812	-53.37373733520508	1004.196166992188	123.6985168457031	-15.26561260223389	1106.197143554688	179.1920928955078	202.4520721435547	1279.075927734375	58.27130508422852	-11.54263210296631	1231.160278320312	178.7122650146484	55.61060333251953	1500.493286132812	167.4127197265625	191.9225921630859	1391.015502929688	67.03384399414062	33.26729965209961	1377.377075195312	275.9252014160156	-25.13920593261719	1453.427368164062	107.7172546386719	14.30924701690674	1473.301147460938	-14.96024799346924	-44.90426254272461	1348.068725585938	-71.43196868896484	-55.60555267333984	1128.589599609375	-99.44947052001953	-95.00971221923828	1121.366943359375	-6.284039497375488	45.52968978881836	886.1113891601562	-116.9666900634766	-32.7115592956543	864.7134399414062	-149.2733764648438	-42.65134811401367	1042.64306640625	-119.1014022827148	36.03096389770508	717.647705078125	-111.1436614990234	-22.74383354187012	804.259765625	-146.4933013916016	45.61589813232422	808.0286254882812	-141.7387847900391	183.2874298095703	1455.947875976562	268.4915161132812	200.9715728759766	1392.80029296875	336.6399230957031	227.1204223632812	1107.889404296875	390.9966430664062	166.3861389160156	1088.151611328125	394.2860717773438	341.517822265625	893.5333862304688	299.4017944335938	331.9842224121094	873.4331665039062	378.5208740234375	243.0453033447266	1053.61328125	394.3656005859375	350.3195495605469	729.750732421875	293.0273132324219	381.8612365722656	805.674072265625	301.9605102539062	353.404052734375	800.7720947265625	369.7249145507812	182.1603698730469	1674.634765625	180.6949157714844	217.1593170166016	1690.668090820312	-22.94047546386719	295.1886596679688	1686.141357421875	98.42329406738281	98.56620025634766	1677.680419921875	37.03751373291016	10.64113903045654	927.0899658203125	-49.33851623535156	163.7686920166016	933.4821166992188	306.3498840332031	221.5290832519531	961.0687255859375	215.0448150634766	101.8839645385742	953.3731689453125	-32.41302108764648	198.7866821289062	518.6046142578125	-83.47705841064453	115.7131423950195	669.7120361328125	-90.81533050537109	223.4533233642578	37.44337463378906	-34.54024124145508	190.8034362792969	263.8593444824219	-50.11886978149414	408.1393432617188	93.80833435058594	-122.928955078125	379.8612670898438	79.57904815673828	-51.60617828369141	304.3897094726562	57.05007171630859	-121.5616760253906	208.754638671875	36.75696182250977	51.128662109375	123.9995574951172	492.2531433105469	268.0476379394531	184.6357574462891	778.5086059570312	284.1588439941406	-36.48882675170898	42.24612426757812	301.3291625976562	96.06153106689453	350.1714477539062	264.8287963867188	165.4422912597656	39.70438003540039	203.7430572509766	93.59550476074219	42.78177261352539	181.576904296875	96.1309814453125	37.70114135742188	287.6750793457031	-104.1929016113281	39.29267120361328	263.7864990234375	
